# xmcd CD database file
#
# Track frame offsets:
#	150
#	21834
#	42941
#	68267
#	83291
#	104480
#	123456
#	139775
#	161919
#
# Disc length: 2363 seconds
#
# Revision: 1
# Processed by: cddbd v1.5.2PL0 Copyright (c) Steve Scherf et al.
# Submitted via: CDex 1.51
#
DISCID=6c093909
DTITLE=Dawn Smithson - Safer Here
DYEAR=2005
DGENRE=Folk-Rock
TTITLE0=Safer Here
TTITLE1=Somewhere Far
TTITLE2=Nowhere Near
TTITLE3=Ticking Away
TTITLE4=Speak Through Me
TTITLE5=How Thoughtless
TTITLE6=Letter To The Empire
TTITLE7=A New Day
TTITLE8=Crossroads
EXTD=YEAR: 2005
EXTT0=
EXTT1=
EXTT2=
EXTT3=
EXTT4=
EXTT5=
EXTT6=
EXTT7=
EXTT8=
PLAYORDER=
